<?xml version="1.0" encoding="iso-8859-1"?>
<!-- Generator: Adobe Illustrator 19.0.0, SVG Export Plug-In . SVG Version: 6.00 Build 0)  -->
<svg version="1.1" id="Layer_1" xmlns="http://www.w3.org/2000/svg" xmlns:xlink="http://www.w3.org/1999/xlink" x="0px" y="0px"
	 viewBox="0 0 512 512" style="enable-background:new 0 0 512 512;" xml:space="preserve">
<circle style="fill:#0F7986;" cx="256" cy="256" r="256"/>
<path style="fill:#FFFFFF;" d="M89.572,61.49h332.856h49.55c6.004,0,10.914,4.914,10.914,10.914v64.958v237.267
	c-95.571,182.405-358.213,182.405-453.785-0.005V137.363V72.4c0-6.004,4.909-10.914,10.914-10.914h49.55L89.572,61.49L89.572,61.49z
	"/>
<g>
	<path style="fill:#ECF0F1;" d="M65.656,390.688h81.946v4.993H65.656V390.688z M65.656,415.015h58.049v4.993H65.656V415.015z
		 M65.656,402.849h81.946v4.993H65.656V402.849z"/>
	<path style="fill:#ECF0F1;" d="M215.027,390.688h81.946v4.993h-81.946V390.688z M215.027,415.015h58.049v4.993h-58.049V415.015z
		 M215.027,402.849h81.946v4.993h-81.946V402.849z"/>
	<path style="fill:#ECF0F1;" d="M364.393,390.688h81.946v4.993h-81.946L364.393,390.688L364.393,390.688z M364.393,415.015h58.049
		v4.993h-58.049V415.015z M364.393,402.849h81.946v4.993h-81.946L364.393,402.849L364.393,402.849z"/>
</g>
<path style="fill:#FF5B62;" d="M203.036,289.015h105.927v84.21H203.036V289.015z"/>
<path style="fill:#ECF0F1;" d="M352.403,289.015H458.33v84.21H352.403V289.015z"/>
<path style="fill:#21D0C3;" d="M53.665,289.015h105.927v84.21H53.665V289.015z"/>
<path style="fill:#828282;" d="M40.022,61.49h431.952c6.004,0,10.914,4.909,10.914,10.914v21.828H29.103V72.404
	c0-6.004,4.909-10.914,10.914-10.914C40.017,61.49,40.022,61.49,40.022,61.49z"/>
<path style="fill:#FFFFFF;" d="M231.128,72.797h219.202c1.62,0,2.933,1.313,2.933,2.933v5.441c0,1.62-1.313,2.933-2.933,2.933
	H231.128c-1.62,0-2.933-1.313-2.933-2.933V75.73C228.195,74.109,229.508,72.797,231.128,72.797z"/>
<circle style="fill:#21D0C3;" cx="50.881" cy="77.129" r="6.286"/>
<circle style="fill:#FAD24D;" cx="75.692" cy="77.129" r="6.286"/>
<circle style="fill:#FF5B62;" cx="100.504" cy="77.129" r="6.286"/>
<rect x="53.665" y="106.242" style="fill:#ECF0F1;" width="404.66" height="133.489"/>
<circle style="fill:#FAD24D;" cx="384.279" cy="383.721" r="127.721"/>
<circle style="fill:#ECF0F1;" cx="384.279" cy="383.721" r="117.121"/>
<circle style="fill:#FFFFFF;" cx="384.279" cy="383.721" r="112.061"/>
<path style="fill:#FF5B62;" d="M364.527,386.134l19.754-74.413l19.754,74.409c-4.605-5.839-11.741-9.584-19.749-9.584
	c-8.013,0-15.154,3.751-19.754,9.588L364.527,386.134L364.527,386.134z"/>
<circle style="fill:#ECF0F1;" cx="384.279" cy="401.675" r="25.141"/>
<circle style="fill:#21D0C3;" cx="384.279" cy="401.675" r="18.447"/>
<path style="fill:#ECF0F1;" d="M352.597,441.398h63.369c4.048,0,7.33,3.282,7.33,7.33l0,0c0,4.048-3.282,7.33-7.33,7.33h-63.369
	c-4.048,0-7.33-3.282-7.33-7.33l0,0C345.267,444.68,348.548,441.398,352.597,441.398z"/>
<path style="fill:#21D0C3;" d="M351.756,288.475l2.859-0.928l2.536,7.806l-2.859,0.928L351.756,288.475z M479.53,351.193
	l0.928,2.859l-7.806,2.536l-0.928-2.859L479.53,351.193z M413.952,287.546l2.859,0.928l-2.536,7.806l-2.859-0.928L413.952,287.546z
	 M442.219,301.421l2.429,1.765l-4.822,6.642l-2.429-1.765l4.827-6.642H442.219z M464.815,323.35l1.765,2.429l-6.642,4.827
	l-1.765-2.429l6.642-4.822V323.35z M288.105,354.048l0.928-2.859l7.806,2.536l-0.928,2.859L288.105,354.048z M301.98,325.781
	l1.769-2.429l6.642,4.822l-1.769,2.429l-6.642-4.827V325.781z M323.909,303.186l2.429-1.765l4.827,6.642l-2.429,1.765
	L323.909,303.186z"/>
<g>
	<path style="fill:#FF5B62;" d="M284.36,381.016h16.406v5.408H284.36V381.016z M467.798,381.016h16.406v5.408h-16.406V381.016z"/>
	<path style="fill:#FF5B62;" d="M381.575,300.202v-16.406h5.408v16.406H381.575z"/>
</g>
<g>
</g>
<g>
</g>
<g>
</g>
<g>
</g>
<g>
</g>
<g>
</g>
<g>
</g>
<g>
</g>
<g>
</g>
<g>
</g>
<g>
</g>
<g>
</g>
<g>
</g>
<g>
</g>
<g>
</g>
</svg>
